<svg xmlns="http://www.w3.org/2000/svg" xmlns:xlink="http://www.w3.org/1999/xlink" width="500" zoomAndPan="magnify" viewBox="0 0 375 299.999988" height="400" preserveAspectRatio="xMidYMid meet" version="1.0"><defs><g/></defs><g fill="#000000" fill-opacity="1"><g transform="translate(8.091914, 241.939246)"><g><path d="M 23.09375 -15.4375 C 11.425781 -28.15625 5.59375 -43.753906 5.59375 -62.234375 C 5.59375 -80.710938 11.425781 -96.351562 23.09375 -109.15625 C 34.757812 -121.957031 49.585938 -128.359375 67.578125 -128.359375 C 84.109375 -128.359375 97.722656 -123.171875 108.421875 -112.796875 L 108.421875 -209.078125 L 151.453125 -209.078125 L 151.453125 0 L 108.90625 0 L 108.90625 -14.09375 L 108.421875 -14.09375 C 97.722656 -2.269531 84.109375 3.640625 67.578125 3.640625 C 49.585938 3.640625 34.757812 -2.71875 23.09375 -15.4375 Z M 59.6875 -83.390625 C 54.09375 -77.878906 51.296875 -70.828125 51.296875 -62.234375 C 51.296875 -53.640625 53.96875 -46.628906 59.3125 -41.203125 C 64.664062 -35.773438 71.71875 -33.0625 80.46875 -33.0625 C 88.894531 -33.0625 95.820312 -35.816406 101.25 -41.328125 C 106.6875 -46.835938 109.40625 -53.804688 109.40625 -62.234375 C 109.40625 -70.828125 106.609375 -77.878906 101.015625 -83.390625 C 95.421875 -88.898438 88.570312 -91.65625 80.46875 -91.65625 C 72.207031 -91.65625 65.28125 -88.898438 59.6875 -83.390625 Z M 59.6875 -83.390625 "/></g></g></g><g fill="#000000" fill-opacity="1"><g transform="translate(151.287086, 241.939246)"><g><path d="M 142.9375 -109.15625 C 154.613281 -96.351562 160.453125 -80.710938 160.453125 -62.234375 C 160.453125 -43.753906 154.613281 -28.15625 142.9375 -15.4375 C 131.269531 -2.71875 116.441406 3.640625 98.453125 3.640625 C 81.921875 3.640625 68.304688 -2.269531 57.609375 -14.09375 L 57.125 -14.09375 L 57.125 0 L 14.59375 0 L 14.59375 -209.078125 L 57.609375 -209.078125 L 57.609375 -112.796875 C 68.304688 -123.171875 81.921875 -128.359375 98.453125 -128.359375 C 116.441406 -128.359375 131.269531 -121.957031 142.9375 -109.15625 Z M 106.71875 -41.203125 C 112.070312 -46.628906 114.75 -53.640625 114.75 -62.234375 C 114.75 -70.828125 111.953125 -77.878906 106.359375 -83.390625 C 100.765625 -88.898438 93.835938 -91.65625 85.578125 -91.65625 C 77.472656 -91.65625 70.625 -88.898438 65.03125 -83.390625 C 59.4375 -77.878906 56.640625 -70.828125 56.640625 -62.234375 C 56.640625 -53.804688 59.351562 -46.835938 64.78125 -41.328125 C 70.21875 -35.816406 77.148438 -33.0625 85.578125 -33.0625 C 94.328125 -33.0625 101.375 -35.773438 106.71875 -41.203125 Z M 106.71875 -41.203125 "/></g></g></g><g fill="#d4af37" fill-opacity="1"><g transform="translate(294.487411, 241.939246)"><g><path d="M 42.296875 -52.03125 C 50.078125 -52.03125 56.679688 -49.3125 62.109375 -43.875 C 67.546875 -38.445312 70.265625 -31.84375 70.265625 -24.0625 C 70.265625 -16.445312 67.546875 -9.925781 62.109375 -4.5 C 56.679688 0.925781 50.078125 3.640625 42.296875 3.640625 C 34.679688 3.640625 28.160156 0.925781 22.734375 -4.5 C 17.304688 -9.925781 14.59375 -16.445312 14.59375 -24.0625 C 14.59375 -31.84375 17.304688 -38.445312 22.734375 -43.875 C 28.160156 -49.3125 34.679688 -52.03125 42.296875 -52.03125 Z M 42.296875 -52.03125 "/></g></g></g></svg>